<svg xmlns="http://www.w3.org/2000/svg" viewBox="0 0 400 400" width="400" height="400">
  <defs>
    <linearGradient id="bg" x1="0" y1="0" x2="0" y2="1"><stop offset="0%" stop-color="#f3f4f6"/><stop offset="100%" stop-color="#e5e7eb"/></linearGradient>
    <pattern id="stripes" x="0" y="0" width="40" height="100%" patternUnits="userSpaceOnUse">
      <rect x="0" width="20" height="100%" fill="#0068A8"/>
      <rect x="20" width="20" height="100%" fill="#000000"/>
    </pattern>
  </defs>
  <rect width="400" height="400" fill="url(#bg)" rx="8"/>
  <path d="M120 100 L160 80 L200 90 L240 80 L280 100 L300 160 L280 170 L280 320 L120 320 L120 170 L100 160 Z" fill="url(#stripes)" stroke="#00000020" stroke-width="1"/>
  <path d="M120 100 L60 140 L50 200 L100 210 L120 170 Z" fill="#0068A8" stroke="#00000020" stroke-width="1"/>
  <path d="M280 100 L340 140 L350 200 L300 210 L280 170 Z" fill="#000000" stroke="#00000020" stroke-width="1"/>
  <path d="M175 85 L200 90 L225 85 L220 105 L200 100 L180 105 Z" fill="#FFFFFF" stroke="#00000030" stroke-width="0.5"/>
  <text x="200" y="230" text-anchor="middle" font-family="Arial,sans-serif" font-size="64" font-weight="bold" fill="#FFFFFF" opacity="0.3">10</text>
</svg>
